<?xml version="1.0" encoding="utf-8"?>
<!-- Generator: Adobe Illustrator 15.1.0, SVG Export Plug-In . SVG Version: 6.00 Build 0)  -->
<!DOCTYPE svg PUBLIC "-//W3C//DTD SVG 1.1//EN" "http://www.w3.org/Graphics/SVG/1.1/DTD/svg11.dtd">
<svg version="1.1" id="圖層_1" xmlns="http://www.w3.org/2000/svg" xmlns:xlink="http://www.w3.org/1999/xlink" x="0px" y="0px"
	 width="200px" height="160px" viewBox="0 0 200 160" enable-background="new 0 0 200 160" xml:space="preserve">
<path fill-rule="evenodd" clip-rule="evenodd" fill="#4692CF" d="M44.529,12.05l0.001,22.966c0,2.89,1.618,7.465,3.559,10.793
	c1.974,3.381,8.492,11.14,10.735,14.42c1.802,2.633,2.977,6.108,2.977,8.533l-0.005,18.4h-9.812v-24.54H27.442V45.856v-7.775l0,0
	v-12.27h-12.27l-0.001,49.08h24.451l0.001,24.54l23.662-0.004c5.953,0,10.768-4.676,10.781-10.779l-0.004-22.946
	c0-2.891-1.618-7.467-3.559-10.794c-1.975-3.383-8.491-11.139-10.735-14.419c-1.804-2.634-2.973-6.109-2.973-8.534l0.002-18.411
	h9.815l-0.001,24.537h24.54v22.646h0.001v14.164h12.272v-49.08H78.883l0.001-24.538L55.313,1.272
	C49.36,1.272,44.543,5.947,44.529,12.05"/>
<defs>
	<filter id="Adobe_OpacityMaskFilter" filterUnits="userSpaceOnUse" x="78.95" y="62.622" width="24.476" height="12.271">
		<feColorMatrix  type="matrix" values="1 0 0 0 0  0 1 0 0 0  0 0 1 0 0  0 0 0 1 0"/>
	</filter>
</defs>
<mask maskUnits="userSpaceOnUse" x="78.95" y="62.622" width="24.476" height="12.271" id="SVGID_1_">
	<g filter="url(#Adobe_OpacityMaskFilter)">
		<rect x="78.949" y="62.622" width="24.477" height="12.27"/>
		<g enable-background="new    ">
			<g>
				<defs>
					<rect id="SVGID_2_" x="78.949" y="62.622" width="24.477" height="12.27"/>
				</defs>
				<clipPath id="SVGID_3_">
					<use xlink:href="#SVGID_2_"  overflow="visible"/>
				</clipPath>
				<rect x="89.43" y="59.854" clip-path="url(#SVGID_3_)" fill="#FFFFFF" width="13.996" height="15.037"/>
				<rect x="65.802" y="59.854" clip-path="url(#SVGID_3_)" fill="#231815" width="13.997" height="15.037"/>
				<g>
					<defs>
						<rect id="SVGID_4_" x="78.594" y="59.854" width="12.04" height="15.037"/>
					</defs>
					<clipPath id="SVGID_5_" clip-path="url(#SVGID_3_)">
						<use xlink:href="#SVGID_4_"  overflow="visible"/>
					</clipPath>
					<g transform="matrix(1 0 0 1 6.137789e-006 3.815734e-006)" clip-path="url(#SVGID_5_)">
						
							<image overflow="visible" width="256" height="1" xlink:href="4D84C9D.jpg"  transform="matrix(-0.047 0 0 -15.0373 90.6338 74.8916)">
						</image>
					</g>
				</g>
			</g>
		</g>
	</g>
</mask>
<g mask="url(#SVGID_1_)">
	<g>
		<defs>
			<rect id="SVGID_6_" x="78.949" y="62.622" width="24.477" height="12.27"/>
		</defs>
		<clipPath id="SVGID_7_">
			<use xlink:href="#SVGID_6_"  overflow="visible"/>
		</clipPath>
		
			<rect x="78.949" y="62.622" clip-path="url(#SVGID_7_)" fill-rule="evenodd" clip-rule="evenodd" fill="#4692CF" width="24.477" height="12.27"/>
	</g>
</g>
<defs>
	<filter id="Adobe_OpacityMaskFilter_1_" filterUnits="userSpaceOnUse" x="15.204" y="25.811" width="24.477" height="12.271">
		<feColorMatrix  type="matrix" values="1 0 0 0 0  0 1 0 0 0  0 0 1 0 0  0 0 0 1 0"/>
	</filter>
</defs>
<mask maskUnits="userSpaceOnUse" x="15.204" y="25.811" width="24.477" height="12.271" id="SVGID_8_">
	<g filter="url(#Adobe_OpacityMaskFilter_1_)">
		<rect x="15.204" y="25.812" width="24.477" height="12.27"/>
		<g enable-background="new    ">
			<g>
				<defs>
					<rect id="SVGID_9_" x="15.204" y="25.812" width="24.477" height="12.27"/>
				</defs>
				<clipPath id="SVGID_10_">
					<use xlink:href="#SVGID_9_"  overflow="visible"/>
				</clipPath>
				<rect x="15.204" y="25.812" clip-path="url(#SVGID_10_)" fill="#FFFFFF" width="13.996" height="15.037"/>
				<rect x="38.832" y="25.812" clip-path="url(#SVGID_10_)" fill="#231815" width="13.996" height="15.037"/>
				<g>
					<defs>
						<rect id="SVGID_11_" x="27.996" y="25.812" width="12.04" height="15.037"/>
					</defs>
					<clipPath id="SVGID_12_" clip-path="url(#SVGID_10_)">
						<use xlink:href="#SVGID_11_"  overflow="visible"/>
					</clipPath>
					<g transform="matrix(1 0 0 1 2.840015e-006 7.118445e-007)" clip-path="url(#SVGID_12_)">
						
							<image overflow="visible" width="256" height="1" xlink:href="4D84C9F.jpg"  transform="matrix(0.047 0 0 15.0373 27.9956 25.812)">
						</image>
					</g>
				</g>
			</g>
		</g>
	</g>
</mask>
<g mask="url(#SVGID_8_)">
	<g>
		<defs>
			<rect id="SVGID_13_" x="15.204" y="25.812" width="24.477" height="12.27"/>
		</defs>
		<clipPath id="SVGID_14_">
			<use xlink:href="#SVGID_13_"  overflow="visible"/>
		</clipPath>
		
			<rect x="15.204" y="25.811" clip-path="url(#SVGID_14_)" fill-rule="evenodd" clip-rule="evenodd" fill="#4692CF" width="24.477" height="12.271"/>
	</g>
</g>
<path fill-rule="evenodd" clip-rule="evenodd" fill="#686564" d="M31.583,115.896v-6.438h-6.731v6.438H4.294v26.357
	c0,2.729,2.209,4.938,4.937,4.938h15.621v11.535h6.731v-11.535h15.622c2.727,0,4.938-2.209,4.938-4.938v-26.357H31.583z
	 M24.852,142.508H12.391c-0.754,0-1.364-0.611-1.364-1.365v-20.557h13.825V142.508z M45.411,141.143
	c0,0.754-0.611,1.365-1.366,1.365H31.583v-21.922h13.828V141.143z"/>
<path fill-rule="evenodd" clip-rule="evenodd" fill="#686564" d="M65.466,139.436c-0.357,4.859,1.819,10.449,4.785,12.986
	l-0.001-3.301c-0.767-1.447-1.732-5.908-1.152-8.057L65.466,139.436z M81.225,109.438H67.889c0.274,2.102-1.78,8.902-3.36,10.313
	v4.063c0.308-0.061,0.631-0.164,0.954-0.311v3.58h6.021v5.592h-6.024v3.949h6.024v18.154h-6.99v3.951h20.083v-3.951H77.64v-18.154
	h5.991v-3.949H77.64v-5.592h5.987l0.004-3.639c0.356,0.168,0.641,0.301,0.974,0.369v-4.063
	C83.023,118.34,80.951,111.539,81.225,109.438 M66.163,123.131c3.145-1.879,6.667-6.805,7.174-9.453h2.44
	c0.507,2.65,4.049,7.576,7.203,9.453H66.163z M106.67,116.516h-5.08c0.115,1.158-0.375,9.74-1.68,10.336
	c-1.307-0.596-1.797-9.178-1.686-10.336h-5.075c-0.116,1.158,0.473,9.039,1.314,10.305h-9.052v3.988h11.261v23.971h-4.661v-21.404
	H85.85v20.42c0,2.723,2.772,4.934,5.499,4.934h17.317c2.725,0,4.938-2.211,4.938-4.934v-20.42h-6.156v21.404h-4.662v-23.971h11.26
	v-3.988h-8.693C106.195,125.555,106.783,117.674,106.67,116.516 M85.475,109.438v14.781h6.143v-10.83h16.533v10.83h6.152v-14.781
	H85.475z M78.857,152.422c2.968-2.537,5.148-8.129,4.793-12.986l-3.632,1.629c0.581,2.148-0.386,6.609-1.153,8.057L78.857,152.422z"
	/>
<path fill-rule="evenodd" clip-rule="evenodd" fill="#686564" d="M189.596,148.387c0.379,0.422,0.928,0.857,2.057,1.145v-1.314
	c-0.738-0.318-1.111-0.682-1.623-1.344c0.486-0.355,0.793-0.934,0.793-1.586v-3.047h-4.637v-0.648h5.201v-1.109h-5.201v-0.832
	h-2.385v0.832h-5.203v1.109h5.203v0.648h-4.645v3.047c0,1.08,0.875,1.955,1.955,1.955h2.689v0.648h-5.203v1.414h10.998V148.387z
	 M183.801,146.133h-1.412c-0.463,0-0.844-0.383-0.844-0.846h2.256V146.133z M183.803,144.178h-2.26v-0.834h2.26V144.178z
	 M186.186,143.342h2.258v0.834h-2.258V143.342z M188.441,145.287c0,0.463-0.379,0.846-0.844,0.846h-1.412v-0.846H188.441z
	 M186.186,147.891v-0.648h1.334c0.961,0,1.322,0.211,1.678,0.648H186.186z"/>
<path fill-rule="evenodd" clip-rule="evenodd" fill="#686564" d="M179.525,152.795c1.465,1.563,3.445,2.607,5.688,2.482v-1.273
	c-1.09-0.031-2.418-0.682-3.174-1.199L179.525,152.795z"/>
<path fill-rule="evenodd" clip-rule="evenodd" fill="#686564" d="M190.416,149.908h-3.004v0.689h-8.588v1.438h8.588l-0.004,1.842
	c0,0.334-0.285,0.578-0.617,0.578l-0.797,0.006v1.422l2.27,0.006c1.184,0,2.145-0.961,2.145-2.145l0.006-1.709h1.238v-1.438h-1.238
	L190.416,149.908z"/>
<path fill-rule="evenodd" clip-rule="evenodd" fill="#686564" d="M195.693,136.854H174.57v19.678c0,1.211,0.982,2.191,2.191,2.191
	h16.754c1.211,0,2.189-0.98,2.189-2.191L195.693,136.854z M192.717,156.34c0,0.332-0.088,0.605-0.422,0.605h-14.352
	c-0.336,0-0.4-0.273-0.4-0.605v-17.744h15.174V156.34z"/>
<path fill-rule="evenodd" clip-rule="evenodd" fill="#686564" d="M151.438,147.545h6.256v1.131h-6.256V147.545z M151.438,141.479
	h6.256v1.131h-6.256V141.479z M151.438,144.51h6.252v1.141h-6.252V144.51z M159.705,150.57h8.607v-1.895h-7.643v-1.131h7.643v-1.893
	h-7.643v-1.146h7.643v-1.893h-7.643v-1.135h7.639v-1.896h-7.639v-2.762h-2.977v2.748h-4.855c0.615-1.031,0.953-2.023,1.172-2.738
	h-3.68c-0.381,1.049-0.709,3.496-2.953,4.908v1.793c0.385-0.1,0.756-0.201,1.096-0.328v5.164c0,1.211,0.984,2.203,2.193,2.203
	l6.055,0.012v1.059h-9.824v1.898h4.533c-0.277,1.287-2.764,2.961-4.035,3.734l-0.006,1.43c4.092-1.338,6.641-3.449,7.398-5.164
	h1.934v2.238c0,0.73-0.592,1.324-1.324,1.324h-1.803v1.613h4.061c1.123,0,2.031-0.906,2.031-2.029v-3.146l1.955-0.002
	c0.758,1.717,3.305,3.828,7.396,5.166l-0.006-1.43c-1.27-0.773-3.758-2.447-4.037-3.734h4.516v-1.898h-9.813L159.705,150.57z"/>
<path fill-rule="evenodd" clip-rule="evenodd" fill="#686564" d="M128.615,142.973c0.242-0.063,0.744-0.123,1.529-0.123
	c1.607,0,2.654,0.684,2.654,2.174c0,1.346-1.047,2.232-2.715,2.232h-1.469V142.973z M126.162,154.635h2.453v-5.57h1.248
	c1.408,0.041,2.051,0.604,2.434,2.373c0.381,1.689,0.703,2.797,0.904,3.197h2.553c-0.279-0.521-0.643-2.09-1.064-3.781
	c-0.342-1.307-0.926-2.252-1.891-2.613v-0.061c1.268-0.463,2.453-1.648,2.453-3.398c0-1.146-0.422-2.092-1.166-2.715
	c-0.904-0.766-2.232-1.086-4.184-1.086c-1.428,0-2.814,0.121-3.74,0.281V154.635z"/>
<path fill-rule="evenodd" clip-rule="evenodd" fill="#686564" d="M137.107,141.238c-1.674-1.672-3.984-2.707-6.537-2.707
	s-4.863,1.035-6.535,2.707c-1.674,1.672-2.707,3.984-2.707,6.535c0,2.553,1.033,4.865,2.707,6.537
	c1.672,1.672,3.982,2.707,6.535,2.707s4.863-1.035,6.537-2.707c1.672-1.672,2.707-3.984,2.707-6.537
	C139.814,145.223,138.779,142.91,137.107,141.238 M130.57,136.82c3.023,0,5.764,1.227,7.746,3.209
	c1.982,1.98,3.207,4.721,3.207,7.744c0,3.025-1.225,5.764-3.207,7.746s-4.723,3.209-7.746,3.209s-5.764-1.227-7.744-3.209
	c-1.982-1.982-3.209-4.721-3.209-7.746c0-3.023,1.227-5.762,3.209-7.744C124.807,138.047,127.547,136.82,130.57,136.82"/>
</svg>
